<?xml version="1.0" encoding="utf-8"?>
<!-- Generator: Adobe Illustrator 27.0.0, SVG Export Plug-In . SVG Version: 6.00 Build 0)  -->
<svg version="1.1" xmlns="http://www.w3.org/2000/svg" xmlns:xlink="http://www.w3.org/1999/xlink" x="0px" y="0px"
	 viewBox="0 0 505.16 91.17" style="enable-background:new 0 0 505.16 91.17;" xml:space="preserve">
<style type="text/css">
	.st0{fill:#F7D158;}
	.st1{fill:none;}
	.st2{opacity:0.8;}
	.st3{font-family:'YEONGJUPunggiGinseng-TTF';}
	.st4{font-size:18px;}
	.st5{fill:url(#SVGID_1_);}
	.st6{fill:url(#SVGID_00000164500826660337573770000008631561742246001333_);}
	.st7{fill:#010101;}
	.st8{fill:#4D535D;}
	.st9{fill:#4B515A;}
	.st10{fill:#494E57;}
	.st11{fill:#474C55;}
	.st12{fill:#454A52;}
	.st13{fill:#434850;}
	.st14{fill:#41464D;}
	.st15{fill:#3F444A;}
	.st16{fill:#3D4148;}
	.st17{fill:#3B3F45;}
	.st18{fill:#393D43;}
	.st19{fill:#373B40;}
	.st20{fill:#35393E;}
	.st21{fill:#33373B;}
	.st22{fill:#313539;}
	.st23{fill:#2F3236;}
	.st24{fill:#2D3034;}
	.st25{fill:#2B2E31;}
	.st26{fill:#292C2F;}
	.st27{fill:#272A2C;}
	.st28{fill:#24272A;}
	.st29{fill:#222527;}
	.st30{fill:#202224;}
	.st31{fill:#1D2022;}
	.st32{fill:#1B1D1E;}
	.st33{fill:#181A1B;}
	.st34{fill:#151718;}
	.st35{fill:#121414;}
	.st36{fill:#0E1010;}
	.st37{fill:#0A0B0C;}
	.st38{fill:#060606;}
	.st39{fill:url(#SVGID_00000028310261608634721300000012662056436514390681_);}
	.st40{fill:#E5DAEC;}
	.st41{fill:url(#SVGID_00000054241256146702263650000005236939626306309019_);}
	.st42{fill:url(#SVGID_00000161593969688238257620000008513097169659020952_);}
	.st43{fill:url(#SVGID_00000124860942455879356140000016418183290342602680_);}
	.st44{fill:url(#SVGID_00000085963066585563677220000007557139011408731026_);}
	.st45{fill:url(#SVGID_00000063616619652529638320000014018735001184950153_);}
	.st46{fill:url(#SVGID_00000014605749650355945800000000106657658738134402_);}
	.st47{fill:url(#SVGID_00000036253643080172204790000004828971267893789077_);}
	.st48{fill:url(#SVGID_00000153688919505718175140000014111114884729561516_);}
	.st49{fill:url(#SVGID_00000178896985119568109240000007647818890399986834_);}
	.st50{fill:url(#SVGID_00000015325401100657450090000006430189236371635110_);}
	.st51{fill:url(#SVGID_00000041976950677081042410000015974149073525213344_);}
	.st52{fill:url(#SVGID_00000040572894735278446960000001521478680739148956_);}
	.st53{fill:url(#SVGID_00000137123769509945708310000013822762096494527887_);}
	.st54{fill:url(#SVGID_00000088825294742778048000000009714719441949444739_);}
	.st55{fill:url(#SVGID_00000155146157309896108430000014088485044171278745_);}
	.st56{fill:url(#SVGID_00000175316789028477715780000005923987052032356500_);}
	.st57{fill:url(#SVGID_00000057118256071357468550000014596289981939201960_);}
	.st58{fill:url(#SVGID_00000067218205075193310970000006686632536665815952_);}
	.st59{fill:url(#SVGID_00000145028934922046846000000017241355941286434223_);}
	.st60{fill:url(#SVGID_00000035527183424945872540000004793553746507370124_);}
	.st61{fill:url(#SVGID_00000059277211951208726510000004660853884424906904_);}
	.st62{fill:url(#SVGID_00000168812286464152279730000005506448400640671156_);}
	.st63{fill:url(#SVGID_00000173848096189367551650000011545824920340455856_);}
	.st64{fill:url(#SVGID_00000021799896992981173970000002701234141130179250_);}
	.st65{fill:url(#SVGID_00000093895886226772965700000003642106223413232062_);}
	.st66{fill:url(#SVGID_00000095304069622847644320000001827585728746243519_);}
	.st67{fill:url(#SVGID_00000051363454268934094870000000978520406766341781_);}
	.st68{fill:url(#SVGID_00000174591433541430459420000012429327830189446310_);}
	.st69{fill:url(#SVGID_00000083089500445051380250000017293366139487148964_);}
	.st70{fill:url(#SVGID_00000083772806584100507040000012817868278531465122_);}
	.st71{fill:url(#SVGID_00000116944183222779620700000007045432476798858166_);}
	.st72{fill:url(#SVGID_00000036930545140986517210000000158307886387587994_);}
	.st73{fill:url(#SVGID_00000176010814511910065550000011076952098493092250_);}
	.st74{fill:url(#SVGID_00000147936554773711226580000011835730010783206798_);}
	.st75{opacity:0.7;}
	.st76{fill:#FDF163;}
	.st77{fill:url(#SVGID_00000057832826488377495340000007189893485153083022_);}
	.st78{fill:#FFF24C;}
	.st79{fill:url(#SVGID_00000010291560134094969630000001417891400245285272_);}
	.st80{fill:url(#SVGID_00000059988124191671982810000006386323419824930487_);}
	.st81{fill:url(#SVGID_00000145028002652251760960000015749018717842536104_);}
	.st82{fill:url(#SVGID_00000036238498494355419570000000243297628607704725_);}
	.st83{fill:#83848D;}
	.st84{fill:#81828A;}
	.st85{fill:#7F7F88;}
	.st86{fill:#7D7C86;}
	.st87{fill:#7B7A84;}
	.st88{fill:#797782;}
	.st89{fill:#777580;}
	.st90{fill:#75737E;}
	.st91{fill:#73707C;}
	.st92{fill:#716E7A;}
	.st93{fill:#6F6B78;}
	.st94{fill:#6D6976;}
	.st95{fill:#6B6774;}
	.st96{fill:#696572;}
	.st97{fill:#676270;}
	.st98{fill:#66606E;}
	.st99{fill:#645E6C;}
	.st100{fill:#625C6A;}
	.st101{fill:#605A69;}
	.st102{fill:#5E5767;}
	.st103{fill:#5C5565;}
	.st104{fill:#5A5363;}
	.st105{fill:#595161;}
	.st106{fill:#574F5F;}
	.st107{fill:#554D5E;}
	.st108{fill:#534B5C;}
	.st109{fill:#52495A;}
	.st110{fill:#504758;}
	.st111{fill:#4E4457;}
	.st112{fill:#4C4255;}
	.st113{fill:#4B4053;}
	.st114{fill:#493E51;}
	.st115{fill:#D74955;}
	.st116{fill:#D84B57;}
	.st117{fill:#D94C58;}
	.st118{fill:#D94E59;}
	.st119{fill:#DA4F5B;}
	.st120{fill:#DB515C;}
	.st121{fill:#DC535E;}
	.st122{fill:#DD545F;}
	.st123{fill:#DD5661;}
	.st124{fill:#DE5762;}
	.st125{fill:#DF5963;}
	.st126{fill:#E05A65;}
	.st127{fill:#E05C66;}
	.st128{fill:#E15D68;}
	.st129{fill:#E25F69;}
	.st130{fill:#E3606B;}
	.st131{fill:#E4626C;}
	.st132{fill:#E4636E;}
	.st133{fill:#E56570;}
	.st134{fill:#E66671;}
	.st135{fill:#E76873;}
	.st136{fill:#E86975;}
	.st137{fill:#E96B76;}
	.st138{fill:#EA6C78;}
	.st139{fill:#EB6D7A;}
	.st140{fill:#EB6F7B;}
	.st141{fill:#EC707D;}
	.st142{fill:#EE727F;}
	.st143{fill:#EF7380;}
	.st144{fill:#F07582;}
	.st145{fill:#F17684;}
	.st146{fill:#F37886;}
	.st147{fill:#ADB5C4;}
	.st148{fill:#AFB7C5;}
	.st149{fill:#B1B8C7;}
	.st150{fill:#B3BAC8;}
	.st151{fill:#B5BCCA;}
	.st152{fill:#B7BECB;}
	.st153{fill:#B9C0CD;}
	.st154{fill:#BBC1CE;}
	.st155{fill:#BDC3D0;}
	.st156{fill:#BFC5D1;}
	.st157{fill:#C1C7D3;}
	.st158{fill:#C3C9D4;}
	.st159{fill:#C5CBD6;}
	.st160{fill:#C7CCD8;}
	.st161{fill:#C9CED9;}
	.st162{fill:#CBD0DB;}
	.st163{fill:#CDD2DD;}
	.st164{fill:#CFD4DE;}
	.st165{fill:#D1D6E0;}
	.st166{fill:#D4D8E2;}
	.st167{fill:#D6DAE3;}
	.st168{fill:#D8DCE5;}
	.st169{fill:#DADEE7;}
	.st170{fill:#DCE0E8;}
	.st171{fill:#DEE2EA;}
	.st172{fill:#E1E4EC;}
	.st173{fill:#E3E7EE;}
	.st174{fill:#E5E9F0;}
	.st175{fill:#E7EBF2;}
	.st176{fill:#EAEDF4;}
	.st177{fill:#ECEFF7;}
	.st178{fill:#EEF2FA;}
	.st179{opacity:0.3;fill:#FFFFFF;}
	.st180{fill:#FFFFFF;}
	.st181{opacity:0.5;}
	.st182{fill:#C4C9D7;}
	.st183{fill:#7DCCF2;}
	.st184{fill:#519AD4;}
	.st185{fill:#529BD5;}
	.st186{fill:#549DD5;}
	.st187{fill:#559ED6;}
	.st188{fill:#56A0D7;}
	.st189{fill:#58A1D8;}
	.st190{fill:#59A3D9;}
	.st191{fill:#5AA4DA;}
	.st192{fill:#5CA6DB;}
	.st193{fill:#5DA7DC;}
	.st194{fill:#5FA9DD;}
	.st195{fill:#60ABDE;}
	.st196{fill:#61ACDF;}
	.st197{fill:#63AEE0;}
	.st198{fill:#64AFE1;}
	.st199{fill:#66B1E2;}
	.st200{fill:#67B2E3;}
	.st201{fill:#68B4E4;}
	.st202{fill:#6AB6E5;}
	.st203{fill:#6BB7E6;}
	.st204{fill:#6DB9E7;}
	.st205{fill:#6EBAE8;}
	.st206{fill:#70BCE9;}
	.st207{fill:#71BEEA;}
	.st208{fill:#73C0EB;}
	.st209{fill:#74C1EC;}
	.st210{fill:#76C3ED;}
	.st211{fill:#77C5EE;}
	.st212{fill:#79C6EF;}
	.st213{fill:#7AC8F0;}
	.st214{fill:#7CCAF1;}
	.st215{opacity:0.5;fill:#FFFFFF;}
	.st216{opacity:0.8;fill:none;stroke:#000000;stroke-miterlimit:10;}
	.st217{fill:none;stroke:#000000;stroke-width:2;stroke-miterlimit:10;}
	.st218{fill:#BD202E;}
	.st219{fill:none;stroke:#BE1E2D;stroke-width:2;stroke-miterlimit:10;}
</style>
<g id="Layer_1">
	<rect x="-598.86" y="21.28" class="st1" width="662.81" height="304.32"/>
	<text transform="matrix(1 0 0 1 -598.8625 34.8014)" class="st2 st3 st4">For</text>
	<rect x="-480.5" y="23.61" class="st1" width="662.81" height="304.32"/>
	<text transform="matrix(1 0 0 1 -480.4969 37.1276)" class="st2 st3 st4">7080Era Trip</text>
</g>
<g id="Layer_2">
	<g>
		<g>
			<path class="st218" d="M70.76-1.39c2.86,0,5.51,0.54,7.96,1.63c2.45,1.09,4.54,2.59,6.27,4.49c1.73,1.9,3.09,4.11,4.08,6.63
				c0.98,2.52,1.48,5.2,1.48,8.06s-0.49,5.56-1.48,8.11c-0.99,2.55-2.35,4.76-4.08,6.63c-1.73,1.87-3.83,3.35-6.27,4.44
				c-2.45,1.09-5.1,1.63-7.96,1.63h-50.8c-2.86,0-5.51-0.54-7.96-1.63c-2.45-1.09-4.54-2.57-6.27-4.44
				c-1.73-1.87-3.1-4.08-4.08-6.63c-0.99-2.55-1.48-5.25-1.48-8.11s0.49-5.54,1.48-8.06C2.64,8.84,4,6.63,5.74,4.73
				c1.73-1.9,3.83-3.4,6.27-4.49c2.45-1.09,5.1-1.63,7.96-1.63H70.76z M90.55,62.76H73.62v24.28H59.34V62.76H31.59v24.28H17.31
				V62.76H0.18V50.12h90.37V62.76z M69.03,27.78c2.38,0,4.2-0.8,5.46-2.4c1.26-1.6,1.89-3.59,1.89-5.97c0-2.38-0.63-4.39-1.89-6.02
				c-1.26-1.63-3.08-2.45-5.46-2.45H21.7c-2.38,0-4.2,0.82-5.46,2.45c-1.26,1.63-1.89,3.64-1.89,6.02c0,2.38,0.63,4.37,1.89,5.97
				c1.26,1.6,3.08,2.4,5.46,2.4H69.03z"/>
		</g>
		<g>
			<path class="st219" d="M129.59,61.74c-1.43,3.13-3.18,5.86-5.25,8.21c-2.08,2.35-4.44,4.4-7.09,6.17
				c-2.72,1.77-5.49,3.23-8.31,4.39c-2.82,1.16-5.76,2.07-8.82,2.75V70.51c6.59-1.5,11.97-5.24,16.12-11.22
				c2.04-3.06,3.64-6.65,4.79-10.76c1.16-4.11,1.73-9.03,1.73-14.74V13.08h-21.42V0.84h56.51v12.24h-21.42v20.71
				c0,5.71,0.56,10.63,1.68,14.74c1.12,4.12,2.7,7.7,4.74,10.76c4.22,6.05,9.62,9.79,16.22,11.22v12.75
				c-3.06-0.68-6.04-1.6-8.92-2.75c-2.89-1.16-5.66-2.62-8.31-4.39c-2.59-1.77-4.93-3.82-7.04-6.17
				C132.68,67.6,130.95,64.87,129.59,61.74z M174.36,89.28h14.18V41.13h9.08V28.69h-9.08V0.84h-14.18V89.28z"/>
			<path class="st219" d="M250.97,26.75h12.14V0.84h13.67v88.43H263.1V38.69h-12.14v20.81c0,3.06-0.49,5.9-1.48,8.52
				c-0.99,2.62-2.42,4.88-4.28,6.78c-1.87,1.9-4.2,3.4-6.99,4.49c-2.79,1.09-5.98,1.63-9.59,1.63c-3.54,0-6.7-0.54-9.49-1.63
				c-2.79-1.09-5.13-2.58-7.04-4.49c-1.9-1.9-3.35-4.16-4.33-6.78c-0.99-2.62-1.48-5.46-1.48-8.52V22.16c0-3.06,0.49-5.9,1.48-8.52
				c0.99-2.62,2.43-4.86,4.33-6.73c1.9-1.87,4.25-3.35,7.04-4.44c2.79-1.09,5.95-1.63,9.49-1.63c3.6,0,6.8,0.54,9.59,1.63
				c2.79,1.09,5.12,2.57,6.99,4.44c1.87,1.87,3.3,4.12,4.28,6.73c0.98,2.62,1.48,5.46,1.48,8.52V26.75z M219.86,58.68
				c0,1.29,0.12,2.53,0.36,3.72c0.24,1.19,0.7,2.23,1.38,3.11c0.68,0.88,1.58,1.6,2.7,2.14c1.12,0.54,2.57,0.82,4.33,0.82
				c1.7,0,3.13-0.27,4.28-0.82c1.16-0.54,2.06-1.26,2.7-2.14c0.65-0.88,1.1-1.92,1.38-3.11c0.27-1.19,0.41-2.43,0.41-3.72v-35.9
				c0-1.29-0.14-2.53-0.41-3.72c-0.27-1.19-0.73-2.23-1.38-3.11c-0.65-0.88-1.55-1.58-2.7-2.09c-1.16-0.51-2.58-0.76-4.28-0.76
				c-1.77,0-3.21,0.25-4.33,0.76c-1.12,0.51-2.02,1.21-2.7,2.09c-0.68,0.88-1.14,1.92-1.38,3.11c-0.24,1.19-0.36,2.43-0.36,3.72
				V58.68z M284.01,0.84h13.67v88.43h-13.67V0.84z"/>
			<path class="st219" d="M365.41,59.49c0,3.06-0.66,5.9-1.99,8.52c-1.33,2.62-3.18,4.88-5.56,6.78c-2.38,1.9-5.25,3.4-8.62,4.49
				c-3.37,1.09-7.12,1.63-11.27,1.63c-4.08,0-7.8-0.54-11.17-1.63c-3.37-1.09-6.26-2.58-8.67-4.49c-2.42-1.9-4.28-4.16-5.61-6.78
				c-1.33-2.62-1.99-5.46-1.99-8.52V22.16c0-3.06,0.66-5.9,1.99-8.52c1.33-2.62,3.2-4.86,5.61-6.73c2.41-1.87,5.3-3.35,8.67-4.44
				c3.37-1.09,7.09-1.63,11.17-1.63c4.15,0,7.91,0.54,11.27,1.63c3.37,1.09,6.24,2.57,8.62,4.44c2.38,1.87,4.23,4.12,5.56,6.73
				c1.33,2.62,1.99,5.46,1.99,8.52V59.49z M324.71,58.68c0,1.29,0.29,2.53,0.87,3.72c0.58,1.19,1.43,2.23,2.55,3.11
				c1.12,0.88,2.5,1.6,4.13,2.14c1.63,0.54,3.54,0.82,5.71,0.82c2.11,0,3.99-0.27,5.66-0.82c1.67-0.54,3.06-1.26,4.18-2.14
				c1.12-0.88,1.97-1.92,2.55-3.11c0.58-1.19,0.87-2.43,0.87-3.72v-35.9c0-2.65-1.14-4.93-3.42-6.83c-2.28-1.9-5.56-2.86-9.84-2.86
				s-7.57,0.95-9.84,2.86c-2.28,1.9-3.42,4.18-3.42,6.83V58.68z M385.81,0.84h14.18v88.43h-14.18V0.84z"/>
			<path class="st219" d="M413.35,13.08V0.84h55.69v12.24h-19.99c0.54,2.72,1.29,5.1,2.24,7.14c0.95,2.04,2.11,3.84,3.47,5.41
				c2.04,2.38,4.25,4.22,6.63,5.51c2.38,1.29,5.2,2.18,8.47,2.65v12.75c-6.6-0.82-12.29-2.58-17.08-5.3
				c-4.79-2.72-8.55-7.1-11.27-13.16c-2.99,6.12-7,10.54-12.04,13.26c-2.58,1.36-5.17,2.47-7.75,3.31
				c-2.58,0.85-5.51,1.48-8.77,1.89V33.79c3.26-0.47,6.07-1.36,8.42-2.65c2.35-1.29,4.54-3.13,6.58-5.51
				c1.36-1.56,2.52-3.38,3.47-5.46c0.95-2.07,1.7-4.44,2.24-7.09H413.35z M433.04,53.78c-2.79,0-5.24,0.44-7.34,1.33
				c-2.11,0.88-3.88,2.13-5.3,3.72c-1.43,1.6-2.52,3.47-3.26,5.61c-0.75,2.14-1.12,4.47-1.12,6.99c0,2.58,0.37,4.96,1.12,7.14
				c0.75,2.18,1.84,4.06,3.26,5.66c1.43,1.6,3.2,2.84,5.3,3.72c2.11,0.88,4.55,1.33,7.34,1.33h53.96c2.86,0,5.35-0.44,7.5-1.33
				c2.14-0.88,3.94-2.13,5.41-3.72c1.46-1.6,2.57-3.49,3.32-5.66c0.75-2.18,1.12-4.56,1.12-7.14c0-2.51-0.38-4.84-1.12-6.99
				c-0.75-2.14-1.85-4.01-3.32-5.61c-1.46-1.6-3.26-2.84-5.41-3.72c-2.14-0.88-4.64-1.33-7.5-1.33H433.04z M435.69,77.04
				c-1.97,0-3.38-0.51-4.23-1.53c-0.85-1.02-1.28-2.38-1.28-4.08c0-1.56,0.42-2.84,1.28-3.83c0.85-0.98,2.26-1.48,4.23-1.48h48.76
				c1.9,0,3.3,0.49,4.18,1.48c0.88,0.99,1.33,2.26,1.33,3.83c0,1.7-0.44,3.06-1.33,4.08c-0.88,1.02-2.28,1.53-4.18,1.53H435.69z
				 M489.14,47.46h14.18V0.84h-14.18V47.46z"/>
		</g>
	</g>
</g>
</svg>
