<?xml version="1.0" encoding="utf-8"?>
<!-- Generator: Adobe Illustrator 27.0.0, SVG Export Plug-In . SVG Version: 6.00 Build 0)  -->
<svg version="1.1" xmlns="http://www.w3.org/2000/svg" xmlns:xlink="http://www.w3.org/1999/xlink" x="0px" y="0px"
	 viewBox="0 0 505.16 91.17" style="enable-background:new 0 0 505.16 91.17;" xml:space="preserve">
<style type="text/css">
	.st0{fill:#F7D158;}
	.st1{fill:url(#SVGID_1_);}
	.st2{fill:url(#SVGID_00000054978466659247063290000014409301163730100401_);}
	.st3{fill:#010101;}
	.st4{fill:#4D535D;}
	.st5{fill:#4B515A;}
	.st6{fill:#494E57;}
	.st7{fill:#474C55;}
	.st8{fill:#454A52;}
	.st9{fill:#434850;}
	.st10{fill:#41464D;}
	.st11{fill:#3F444A;}
	.st12{fill:#3D4148;}
	.st13{fill:#3B3F45;}
	.st14{fill:#393D43;}
	.st15{fill:#373B40;}
	.st16{fill:#35393E;}
	.st17{fill:#33373B;}
	.st18{fill:#313539;}
	.st19{fill:#2F3236;}
	.st20{fill:#2D3034;}
	.st21{fill:#2B2E31;}
	.st22{fill:#292C2F;}
	.st23{fill:#272A2C;}
	.st24{fill:#24272A;}
	.st25{fill:#222527;}
	.st26{fill:#202224;}
	.st27{fill:#1D2022;}
	.st28{fill:#1B1D1E;}
	.st29{fill:#181A1B;}
	.st30{fill:#151718;}
	.st31{fill:#121414;}
	.st32{fill:#0E1010;}
	.st33{fill:#0A0B0C;}
	.st34{fill:#060606;}
	.st35{fill:url(#SVGID_00000157280100731713687620000017764476489572173716_);}
	.st36{fill:#E5DAEC;}
	.st37{fill:url(#SVGID_00000181082524072269322890000001576917131227266493_);}
	.st38{fill:url(#SVGID_00000124153873013322533200000016412112178517513093_);}
	.st39{fill:url(#SVGID_00000100382563570876069950000000851610465254673823_);}
	.st40{fill:url(#SVGID_00000013903081717958372150000007927749996376570507_);}
	.st41{fill:url(#SVGID_00000136409385815970248810000004204192157224025006_);}
	.st42{fill:url(#SVGID_00000007425855063632430730000009925754630135815060_);}
	.st43{fill:url(#SVGID_00000037671342500668254150000011974635296166456765_);}
	.st44{fill:url(#SVGID_00000087412462134743812720000005008796938284675968_);}
	.st45{fill:url(#SVGID_00000084505678580789367930000016051452178783426693_);}
	.st46{fill:url(#SVGID_00000116915206599078984430000003077416208202831807_);}
	.st47{fill:url(#SVGID_00000103951873627178938140000000818124258364546448_);}
	.st48{fill:url(#SVGID_00000164511402687180544600000010463722914134737051_);}
	.st49{fill:url(#SVGID_00000074430060385479007980000008359743100835129733_);}
	.st50{fill:url(#SVGID_00000095308923419657087340000017750945745001577630_);}
	.st51{fill:url(#SVGID_00000153670869200209793960000017335054408224782222_);}
	.st52{fill:url(#SVGID_00000021110054283330563270000003737995693098710922_);}
	.st53{fill:url(#SVGID_00000151524811616602768450000000445528860278506911_);}
	.st54{fill:url(#SVGID_00000173850548792356317190000003098973103686250676_);}
	.st55{fill:url(#SVGID_00000058590420799720086630000009065392456421879463_);}
	.st56{fill:url(#SVGID_00000131331962790027654900000009938702144153199525_);}
	.st57{fill:url(#SVGID_00000024721732345450015060000015986915850074753204_);}
	.st58{fill:url(#SVGID_00000067228094399090606130000002172812656514866101_);}
	.st59{fill:url(#SVGID_00000166646124526179393580000010975189481694424248_);}
	.st60{fill:url(#SVGID_00000026850926965606280340000001999798963321108365_);}
	.st61{fill:url(#SVGID_00000047762468393022917650000000401788493360647070_);}
	.st62{fill:url(#SVGID_00000122703265809364372760000010800825662089717430_);}
	.st63{fill:url(#SVGID_00000105404063367199972110000017214996859232724358_);}
	.st64{fill:url(#SVGID_00000103243369359171340290000012268687998011254452_);}
	.st65{fill:url(#SVGID_00000009573777134932096980000009897779243540681100_);}
	.st66{fill:url(#SVGID_00000160882069048682530690000001888224276331757443_);}
	.st67{fill:url(#SVGID_00000171697792677595203570000013886423180742641078_);}
	.st68{fill:url(#SVGID_00000098199978436485125360000014511235372374014627_);}
	.st69{fill:url(#SVGID_00000130610589445598273070000001975463495372921505_);}
	.st70{fill:url(#SVGID_00000018931510181785995770000008623802827189135238_);}
	.st71{opacity:0.7;}
	.st72{fill:#FDF163;}
	.st73{fill:url(#SVGID_00000060735464283524194660000003424641331663022743_);}
	.st74{fill:#FFF24C;}
	.st75{fill:url(#SVGID_00000013882710334764424780000003754610737222444707_);}
	.st76{fill:url(#SVGID_00000101807409391656045320000009688117497050116248_);}
	.st77{fill:url(#SVGID_00000070798956165957962490000009818431832382501048_);}
	.st78{fill:url(#SVGID_00000054258358011576318500000015727643030026212788_);}
	.st79{fill:#83848D;}
	.st80{fill:#81828A;}
	.st81{fill:#7F7F88;}
	.st82{fill:#7D7C86;}
	.st83{fill:#7B7A84;}
	.st84{fill:#797782;}
	.st85{fill:#777580;}
	.st86{fill:#75737E;}
	.st87{fill:#73707C;}
	.st88{fill:#716E7A;}
	.st89{fill:#6F6B78;}
	.st90{fill:#6D6976;}
	.st91{fill:#6B6774;}
	.st92{fill:#696572;}
	.st93{fill:#676270;}
	.st94{fill:#66606E;}
	.st95{fill:#645E6C;}
	.st96{fill:#625C6A;}
	.st97{fill:#605A69;}
	.st98{fill:#5E5767;}
	.st99{fill:#5C5565;}
	.st100{fill:#5A5363;}
	.st101{fill:#595161;}
	.st102{fill:#574F5F;}
	.st103{fill:#554D5E;}
	.st104{fill:#534B5C;}
	.st105{fill:#52495A;}
	.st106{fill:#504758;}
	.st107{fill:#4E4457;}
	.st108{fill:#4C4255;}
	.st109{fill:#4B4053;}
	.st110{fill:#493E51;}
	.st111{fill:#D74955;}
	.st112{fill:#D84B57;}
	.st113{fill:#D94C58;}
	.st114{fill:#D94E59;}
	.st115{fill:#DA4F5B;}
	.st116{fill:#DB515C;}
	.st117{fill:#DC535E;}
	.st118{fill:#DD545F;}
	.st119{fill:#DD5661;}
	.st120{fill:#DE5762;}
	.st121{fill:#DF5963;}
	.st122{fill:#E05A65;}
	.st123{fill:#E05C66;}
	.st124{fill:#E15D68;}
	.st125{fill:#E25F69;}
	.st126{fill:#E3606B;}
	.st127{fill:#E4626C;}
	.st128{fill:#E4636E;}
	.st129{fill:#E56570;}
	.st130{fill:#E66671;}
	.st131{fill:#E76873;}
	.st132{fill:#E86975;}
	.st133{fill:#E96B76;}
	.st134{fill:#EA6C78;}
	.st135{fill:#EB6D7A;}
	.st136{fill:#EB6F7B;}
	.st137{fill:#EC707D;}
	.st138{fill:#EE727F;}
	.st139{fill:#EF7380;}
	.st140{fill:#F07582;}
	.st141{fill:#F17684;}
	.st142{fill:#F37886;}
	.st143{fill:#ADB5C4;}
	.st144{fill:#AFB7C5;}
	.st145{fill:#B1B8C7;}
	.st146{fill:#B3BAC8;}
	.st147{fill:#B5BCCA;}
	.st148{fill:#B7BECB;}
	.st149{fill:#B9C0CD;}
	.st150{fill:#BBC1CE;}
	.st151{fill:#BDC3D0;}
	.st152{fill:#BFC5D1;}
	.st153{fill:#C1C7D3;}
	.st154{fill:#C3C9D4;}
	.st155{fill:#C5CBD6;}
	.st156{fill:#C7CCD8;}
	.st157{fill:#C9CED9;}
	.st158{fill:#CBD0DB;}
	.st159{fill:#CDD2DD;}
	.st160{fill:#CFD4DE;}
	.st161{fill:#D1D6E0;}
	.st162{fill:#D4D8E2;}
	.st163{fill:#D6DAE3;}
	.st164{fill:#D8DCE5;}
	.st165{fill:#DADEE7;}
	.st166{fill:#DCE0E8;}
	.st167{fill:#DEE2EA;}
	.st168{fill:#E1E4EC;}
	.st169{fill:#E3E7EE;}
	.st170{fill:#E5E9F0;}
	.st171{fill:#E7EBF2;}
	.st172{fill:#EAEDF4;}
	.st173{fill:#ECEFF7;}
	.st174{fill:#EEF2FA;}
	.st175{opacity:0.3;fill:#FFFFFF;}
	.st176{fill:#FFFFFF;}
	.st177{opacity:0.5;}
	.st178{fill:#C4C9D7;}
	.st179{fill:#7DCCF2;}
	.st180{fill:#519AD4;}
	.st181{fill:#529BD5;}
	.st182{fill:#549DD5;}
	.st183{fill:#559ED6;}
	.st184{fill:#56A0D7;}
	.st185{fill:#58A1D8;}
	.st186{fill:#59A3D9;}
	.st187{fill:#5AA4DA;}
	.st188{fill:#5CA6DB;}
	.st189{fill:#5DA7DC;}
	.st190{fill:#5FA9DD;}
	.st191{fill:#60ABDE;}
	.st192{fill:#61ACDF;}
	.st193{fill:#63AEE0;}
	.st194{fill:#64AFE1;}
	.st195{fill:#66B1E2;}
	.st196{fill:#67B2E3;}
	.st197{fill:#68B4E4;}
	.st198{fill:#6AB6E5;}
	.st199{fill:#6BB7E6;}
	.st200{fill:#6DB9E7;}
	.st201{fill:#6EBAE8;}
	.st202{fill:#70BCE9;}
	.st203{fill:#71BEEA;}
	.st204{fill:#73C0EB;}
	.st205{fill:#74C1EC;}
	.st206{fill:#76C3ED;}
	.st207{fill:#77C5EE;}
	.st208{fill:#79C6EF;}
	.st209{fill:#7AC8F0;}
	.st210{fill:#7CCAF1;}
	.st211{opacity:0.5;fill:#FFFFFF;}
	.st212{opacity:0.8;fill:none;stroke:#000000;stroke-miterlimit:10;}
	.st213{fill:none;stroke:#000000;stroke-width:2;stroke-miterlimit:10;}
	.st214{fill:#BD202E;}
	.st215{fill:none;stroke:#BE1E2D;stroke-width:2;stroke-miterlimit:10;}
</style>
<g id="Layer_1">
</g>
<g id="Layer_2">
	<g>
		<g>
			<path d="M70.58,0c2.86,0,5.51,0.54,7.96,1.63c2.45,1.09,4.54,2.59,6.27,4.49c1.73,1.9,3.09,4.11,4.08,6.63
				c0.98,2.52,1.48,5.2,1.48,8.06s-0.49,5.56-1.48,8.11c-0.99,2.55-2.35,4.76-4.08,6.63c-1.73,1.87-3.83,3.35-6.27,4.44
				c-2.45,1.09-5.1,1.63-7.96,1.63h-50.8c-2.86,0-5.51-0.54-7.96-1.63c-2.45-1.09-4.54-2.57-6.27-4.44
				c-1.73-1.87-3.1-4.08-4.08-6.63C0.49,26.37,0,23.66,0,20.81s0.49-5.54,1.48-8.06c0.98-2.52,2.35-4.73,4.08-6.63
				c1.73-1.9,3.83-3.4,6.27-4.49C14.28,0.54,16.93,0,19.79,0H70.58z M90.37,64.16H73.44v24.28H59.16V64.16H31.42v24.28H17.14V64.16
				H0V51.51h90.37V64.16z M68.85,29.17c2.38,0,4.2-0.8,5.46-2.4c1.26-1.6,1.89-3.59,1.89-5.97c0-2.38-0.63-4.39-1.89-6.02
				c-1.26-1.63-3.08-2.45-5.46-2.45H21.52c-2.38,0-4.2,0.82-5.46,2.45c-1.26,1.63-1.89,3.64-1.89,6.02c0,2.38,0.63,4.37,1.89,5.97
				c1.26,1.6,3.08,2.4,5.46,2.4H68.85z"/>
		</g>
		<g>
			<path class="st213" d="M129.41,63.13c-1.43,3.13-3.18,5.86-5.25,8.21c-2.08,2.35-4.44,4.4-7.09,6.17
				c-2.72,1.77-5.49,3.23-8.31,4.39c-2.82,1.16-5.76,2.07-8.82,2.75V71.91c6.59-1.5,11.97-5.24,16.12-11.22
				c2.04-3.06,3.64-6.65,4.79-10.76c1.16-4.11,1.73-9.03,1.73-14.74V14.48h-21.42V2.24h56.51v12.24h-21.42v20.71
				c0,5.71,0.56,10.63,1.68,14.74c1.12,4.12,2.7,7.7,4.74,10.76c4.22,6.05,9.62,9.79,16.22,11.22v12.75
				c-3.06-0.68-6.04-1.6-8.92-2.75c-2.89-1.16-5.66-2.62-8.31-4.39c-2.59-1.77-4.93-3.82-7.04-6.17
				C132.5,69,130.77,66.26,129.41,63.13z M174.19,90.67h14.18V42.53h9.08V30.09h-9.08V2.24h-14.18V90.67z"/>
			<path class="st213" d="M250.79,28.15h12.14V2.24h13.67v88.43h-13.67V40.08h-12.14v20.81c0,3.06-0.49,5.9-1.48,8.52
				c-0.99,2.62-2.42,4.88-4.28,6.78c-1.87,1.9-4.2,3.4-6.99,4.49c-2.79,1.09-5.98,1.63-9.59,1.63c-3.54,0-6.7-0.54-9.49-1.63
				c-2.79-1.09-5.13-2.58-7.04-4.49c-1.9-1.9-3.35-4.16-4.33-6.78c-0.99-2.62-1.48-5.46-1.48-8.52V23.56c0-3.06,0.49-5.9,1.48-8.52
				c0.99-2.62,2.43-4.86,4.33-6.73c1.9-1.87,4.25-3.35,7.04-4.44c2.79-1.09,5.95-1.63,9.49-1.63c3.6,0,6.8,0.54,9.59,1.63
				c2.79,1.09,5.12,2.57,6.99,4.44c1.87,1.87,3.3,4.12,4.28,6.73c0.98,2.62,1.48,5.46,1.48,8.52V28.15z M219.68,60.07
				c0,1.29,0.12,2.53,0.36,3.72c0.24,1.19,0.7,2.23,1.38,3.11c0.68,0.88,1.58,1.6,2.7,2.14c1.12,0.54,2.57,0.82,4.33,0.82
				c1.7,0,3.13-0.27,4.28-0.82c1.16-0.54,2.06-1.26,2.7-2.14c0.65-0.88,1.1-1.92,1.38-3.11c0.27-1.19,0.41-2.43,0.41-3.72v-35.9
				c0-1.29-0.14-2.53-0.41-3.72c-0.27-1.19-0.73-2.23-1.38-3.11c-0.65-0.88-1.55-1.58-2.7-2.09c-1.16-0.51-2.58-0.76-4.28-0.76
				c-1.77,0-3.21,0.25-4.33,0.76c-1.12,0.51-2.02,1.21-2.7,2.09c-0.68,0.88-1.14,1.92-1.38,3.11c-0.24,1.19-0.36,2.43-0.36,3.72
				V60.07z M283.84,2.24h13.67v88.43h-13.67V2.24z"/>
			<path class="st213" d="M365.23,60.89c0,3.06-0.66,5.9-1.99,8.52c-1.33,2.62-3.18,4.88-5.56,6.78c-2.38,1.9-5.25,3.4-8.62,4.49
				c-3.37,1.09-7.12,1.63-11.27,1.63c-4.08,0-7.8-0.54-11.17-1.63c-3.37-1.09-6.26-2.58-8.67-4.49c-2.42-1.9-4.28-4.16-5.61-6.78
				c-1.33-2.62-1.99-5.46-1.99-8.52V23.56c0-3.06,0.66-5.9,1.99-8.52c1.33-2.62,3.2-4.86,5.61-6.73c2.41-1.87,5.3-3.35,8.67-4.44
				c3.37-1.09,7.09-1.63,11.17-1.63c4.15,0,7.91,0.54,11.27,1.63c3.37,1.09,6.24,2.57,8.62,4.44c2.38,1.87,4.23,4.12,5.56,6.73
				c1.33,2.62,1.99,5.46,1.99,8.52V60.89z M324.54,60.07c0,1.29,0.29,2.53,0.87,3.72c0.58,1.19,1.43,2.23,2.55,3.11
				c1.12,0.88,2.5,1.6,4.13,2.14c1.63,0.54,3.54,0.82,5.71,0.82c2.11,0,3.99-0.27,5.66-0.82c1.67-0.54,3.06-1.26,4.18-2.14
				c1.12-0.88,1.97-1.92,2.55-3.11c0.58-1.19,0.87-2.43,0.87-3.72v-35.9c0-2.65-1.14-4.93-3.42-6.83c-2.28-1.9-5.56-2.86-9.84-2.86
				s-7.57,0.95-9.84,2.86c-2.28,1.9-3.42,4.18-3.42,6.83V60.07z M385.63,2.24h14.18v88.43h-14.18V2.24z"/>
			<path class="st213" d="M413.17,14.48V2.24h55.69v12.24h-19.99c0.54,2.72,1.29,5.1,2.24,7.14c0.95,2.04,2.11,3.84,3.47,5.41
				c2.04,2.38,4.25,4.22,6.63,5.51c2.38,1.29,5.2,2.18,8.47,2.65v12.75c-6.6-0.82-12.29-2.58-17.08-5.3
				c-4.79-2.72-8.55-7.1-11.27-13.16c-2.99,6.12-7,10.54-12.04,13.26c-2.58,1.36-5.17,2.47-7.75,3.31
				c-2.58,0.85-5.51,1.48-8.77,1.89V35.19c3.26-0.47,6.07-1.36,8.42-2.65c2.35-1.29,4.54-3.13,6.58-5.51
				c1.36-1.56,2.52-3.38,3.47-5.46c0.95-2.07,1.7-4.44,2.24-7.09H413.17z M432.86,55.18c-2.79,0-5.24,0.44-7.34,1.33
				c-2.11,0.88-3.88,2.13-5.3,3.72c-1.43,1.6-2.52,3.47-3.26,5.61c-0.75,2.14-1.12,4.47-1.12,6.99c0,2.58,0.37,4.96,1.12,7.14
				c0.75,2.18,1.84,4.06,3.26,5.66c1.43,1.6,3.2,2.84,5.3,3.72c2.11,0.88,4.55,1.33,7.34,1.33h53.96c2.86,0,5.35-0.44,7.5-1.33
				c2.14-0.88,3.94-2.13,5.41-3.72c1.46-1.6,2.57-3.49,3.32-5.66c0.75-2.18,1.12-4.56,1.12-7.14c0-2.51-0.38-4.84-1.12-6.99
				c-0.75-2.14-1.85-4.01-3.32-5.61c-1.46-1.6-3.26-2.84-5.41-3.72c-2.14-0.88-4.64-1.33-7.5-1.33H432.86z M435.51,78.43
				c-1.97,0-3.38-0.51-4.23-1.53c-0.85-1.02-1.28-2.38-1.28-4.08c0-1.56,0.42-2.84,1.28-3.83c0.85-0.98,2.26-1.48,4.23-1.48h48.76
				c1.9,0,3.3,0.49,4.18,1.48c0.88,0.99,1.33,2.26,1.33,3.83c0,1.7-0.44,3.06-1.33,4.08c-0.88,1.02-2.28,1.53-4.18,1.53H435.51z
				 M488.96,48.85h14.18V2.24h-14.18V48.85z"/>
		</g>
	</g>
</g>
</svg>
